<?xml version="1.0" standalone="no"?>
<!DOCTYPE svg PUBLIC "-//W3C//DTD SVG 20010904//EN"
 "http://www.w3.org/TR/2001/REC-SVG-20010904/DTD/svg10.dtd">
<svg version="1.0" xmlns="http://www.w3.org/2000/svg"
 width="1080.000000pt" height="1080.000000pt" viewBox="0 0 1080.000000 1080.000000"
 preserveAspectRatio="xMidYMid meet">
<metadata>
Created by potrace 1.14, written by Peter Selinger 2001-2017
</metadata>
<g transform="translate(0.000000,1080.000000) scale(0.100000,-0.100000)"
fill="#000000" stroke="none">
<path d="M1510 8566 c0 -49 47 -114 168 -234 160 -158 461 -432 476 -432 2 0
20 -15 39 -32 19 -18 67 -58 106 -88 40 -30 77 -60 84 -65 7 -6 57 -44 112
-84 55 -41 117 -87 137 -102 20 -16 42 -29 47 -29 6 0 11 -3 11 -7 0 -5 23
-21 50 -38 27 -16 50 -34 50 -38 0 -5 4 -6 9 -3 5 3 11 -1 15 -9 3 -8 10 -15
16 -15 6 0 20 -9 32 -20 12 -11 28 -20 35 -20 7 0 13 -4 13 -10 0 -5 7 -10 15
-10 8 0 15 -4 15 -10 0 -5 5 -10 11 -10 6 0 29 -13 52 -29 43 -29 377 -231
382 -231 2 0 41 -22 87 -48 152 -87 330 -160 430 -176 19 -3 41 -8 49 -10 13
-5 74 -13 159 -21 19 -2 35 -4 35 -5 0 -1 11 -3 25 -5 14 -1 53 -5 87 -9 34
-4 72 -9 85 -12 26 -5 88 -13 150 -19 24 -2 57 -7 73 -10 17 -3 48 -7 70 -9
22 -3 40 -5 40 -6 0 -1 16 -3 35 -5 19 -2 55 -5 80 -8 25 -4 67 -9 95 -12 27
-4 63 -9 80 -11 43 -6 137 -17 158 -18 9 0 17 -3 17 -6 0 -3 17 -5 38 -4 20 0
41 -2 46 -4 5 -3 25 -6 45 -8 20 -1 54 -5 76 -9 45 -6 83 -11 170 -20 33 -4
71 -9 85 -11 14 -3 39 -7 55 -9 94 -11 135 -16 175 -21 25 -2 56 -7 70 -9 14
-2 43 -7 65 -9 22 -3 76 -10 120 -16 44 -6 96 -13 115 -15 19 -2 55 -6 80 -9
25 -4 63 -9 85 -11 22 -3 60 -8 85 -11 25 -3 54 -7 65 -9 11 -1 47 -6 80 -10
33 -3 71 -8 85 -11 14 -2 52 -7 85 -10 33 -4 67 -8 75 -9 8 -2 40 -6 70 -10
30 -3 69 -8 85 -10 17 -2 55 -7 85 -10 30 -4 66 -9 80 -11 14 -3 43 -7 65 -10
22 -2 78 -9 125 -15 47 -5 101 -12 120 -14 31 -3 76 -8 165 -20 96 -12 145
-16 145 -11 0 3 -10 31 -22 63 -12 32 -22 61 -23 65 0 4 -6 13 -12 20 -7 6
-13 18 -13 25 0 6 -14 36 -31 65 -16 29 -33 61 -36 71 -3 9 -9 17 -14 17 -5 0
-9 5 -9 11 0 19 -92 132 -171 210 -77 76 -167 142 -269 196 -59 32 -218 96
-255 103 -3 1 -19 6 -37 11 -30 10 -78 22 -133 35 -43 11 -50 13 -50 14 0 1
-7 3 -15 5 -8 2 -53 12 -100 24 -47 12 -94 23 -105 26 -11 2 -45 11 -75 20
-30 9 -66 18 -80 20 -14 2 -57 12 -97 23 -39 11 -74 18 -77 14 -3 -3 -6 1 -6
8 0 7 -3 11 -6 8 -3 -3 -21 -2 -41 4 -19 5 -43 11 -52 13 -9 3 -79 21 -156 40
-77 20 -148 38 -158 40 -10 2 -27 7 -37 10 -10 3 -28 8 -39 10 -12 3 -29 7
-38 10 -84 22 -340 89 -385 101 -32 8 -67 17 -78 19 -11 2 -24 6 -28 9 -5 3
-19 7 -33 10 -22 4 -197 49 -354 91 -82 22 -205 54 -235 61 -38 9 -44 10 -60
17 -8 3 -26 8 -40 10 -14 3 -61 15 -105 27 -44 12 -87 24 -95 25 -8 2 -30 8
-47 14 -18 5 -33 7 -33 4 0 -3 -7 0 -15 7 -8 7 -15 9 -15 5 0 -4 -6 -3 -12 2
-7 5 -26 10 -43 12 -16 2 -32 6 -35 10 -3 3 -10 7 -16 8 -6 1 -23 4 -36 7 -29
5 -145 35 -168 43 -8 3 -22 7 -30 8 -8 2 -26 6 -40 10 -14 3 -30 7 -37 9 -7 1
-15 5 -19 8 -3 4 -12 4 -20 1 -8 -3 -14 1 -14 8 0 7 -2 10 -6 7 -3 -3 -37 3
-77 14 -40 10 -82 21 -94 24 -12 2 -34 9 -49 14 -14 6 -29 8 -34 5 -5 -3 -11
-1 -15 5 -4 6 -11 8 -16 5 -5 -4 -9 -2 -9 3 0 6 -6 9 -12 8 -14 -1 -112 21
-138 31 -19 8 -19 8 -60 17 -36 8 -102 25 -192 51 -29 8 -62 17 -73 19 -11 2
-90 23 -175 46 -85 23 -162 43 -170 45 -8 2 -51 13 -95 25 -156 42 -190 51
-210 55 -11 2 -45 11 -75 20 -30 9 -66 18 -80 21 -14 3 -34 8 -45 11 -11 4
-24 8 -30 9 -5 1 -30 9 -55 17 -25 9 -56 17 -70 19 -14 2 -27 6 -30 10 -3 4
-21 9 -40 13 -37 6 -68 12 -110 21 -31 6 -63 11 -117 18 -33 4 -43 2 -43 -8z"/>
<path d="M2906 6718 c13 -21 74 -85 148 -157 91 -87 91 -87 166 -151 36 -30
79 -67 95 -82 17 -16 36 -28 43 -28 6 0 12 -4 12 -9 0 -9 212 -171 235 -180 6
-2 12 -7 15 -11 3 -3 28 -21 55 -40 28 -19 52 -36 55 -39 3 -3 17 -12 33 -20
15 -8 27 -18 27 -23 0 -4 6 -8 13 -8 7 0 22 -8 33 -17 10 -10 31 -24 47 -32
15 -8 27 -18 27 -23 0 -4 5 -8 10 -8 6 0 53 -27 106 -60 52 -33 99 -60 105
-60 5 0 9 -4 9 -8 0 -4 12 -13 28 -20 15 -6 45 -22 67 -35 22 -13 90 -49 150
-82 61 -32 116 -62 123 -68 6 -5 12 -7 12 -3 0 3 36 -12 80 -34 44 -22 80 -38
80 -35 0 3 18 -4 40 -15 22 -11 40 -18 40 -15 0 3 10 0 23 -7 12 -6 29 -13 37
-14 21 -4 102 -25 120 -31 15 -6 22 -7 100 -19 53 -7 411 -12 425 -5 17 9 45
8 45 -1 0 -5 5 -6 12 -2 11 7 90 11 358 17 63 2 121 6 128 11 7 4 12 2 12 -5
0 -9 3 -9 14 0 9 7 17 8 20 2 5 -7 41 -8 41 -1 0 2 330 12 452 14 62 0 113 3
113 6 0 3 62 6 138 7 75 1 207 4 292 8 444 16 645 24 645 25 0 1 202 9 340 14
103 3 134 14 130 48 -3 26 -69 169 -96 209 -10 14 -16 29 -12 33 3 3 2 6 -3 6
-5 0 -18 16 -28 35 -11 19 -23 35 -28 35 -4 0 -8 6 -8 13 0 19 -113 130 -173
170 -80 53 -178 90 -277 103 -41 6 -75 12 -75 14 0 2 -101 11 -128 10 -16 0
-33 3 -39 6 -6 4 -31 8 -57 10 -45 3 -190 20 -261 30 -35 5 -70 9 -145 18 -65
7 -148 18 -175 22 -14 2 -50 7 -80 10 -30 2 -64 7 -76 9 -11 2 -45 7 -75 11
-30 3 -65 8 -79 10 -14 2 -48 7 -76 9 -28 3 -60 7 -70 9 -11 2 -44 7 -74 10
-30 4 -73 10 -95 13 -22 3 -53 7 -70 9 -29 3 -75 9 -145 19 -19 3 -57 8 -85
11 -27 3 -58 8 -68 10 -10 2 -48 6 -85 10 -37 3 -70 8 -73 10 -3 2 -30 6 -60
9 -30 3 -65 7 -79 9 -23 4 -77 11 -155 21 -16 2 -66 9 -110 15 -122 17 -135
18 -200 26 -33 3 -69 8 -80 10 -19 4 -199 28 -295 40 -25 3 -58 8 -75 10 -47
8 -148 22 -215 29 -43 5 -105 13 -145 20 -33 5 -123 16 -170 20 -16 2 -30 4
-30 5 0 1 -13 4 -30 5 -16 2 -52 6 -80 10 -27 4 -64 8 -81 10 -30 4 -95 12
-154 20 -14 2 -51 6 -84 10 -32 3 -77 10 -100 14 -22 4 -53 7 -68 6 -16 -1
-28 1 -28 4 0 3 -26 7 -57 9 -31 2 -63 8 -70 14 -9 8 -13 7 -13 -2 0 -8 -7
-10 -17 -5 -20 8 -46 12 -115 20 -27 3 -69 7 -94 10 -36 5 -44 3 -38 -7z"/>
<path d="M7907 5263 c-2 -1 -79 -5 -172 -8 -94 -4 -201 -8 -240 -10 -38 -3
-133 -7 -210 -10 -77 -3 -174 -7 -215 -10 -99 -6 -407 -18 -492 -19 -38 -1
-68 -3 -68 -6 0 -3 -42 -6 -93 -6 -83 -1 -215 -7 -467 -19 -47 -2 -143 -6
-215 -10 -71 -3 -168 -7 -215 -10 -47 -2 -152 -7 -235 -10 -170 -7 -287 -12
-460 -21 -187 -9 -523 -26 -563 -27 -8 0 -19 -11 -25 -25 -10 -21 -8 -27 12
-43 52 -42 427 -252 453 -254 4 0 13 -6 20 -12 6 -7 17 -13 23 -13 6 0 36 -12
66 -27 30 -15 60 -28 68 -29 8 -2 18 -9 22 -16 5 -7 9 -9 9 -4 0 5 7 2 17 -5
9 -8 17 -13 17 -11 1 4 37 -9 96 -36 44 -19 75 -32 95 -38 6 -2 75 -28 155
-59 149 -57 207 -75 320 -101 92 -20 121 -26 155 -29 17 -2 53 -6 80 -10 63
-9 275 -9 335 -1 25 4 63 9 85 12 42 6 285 58 345 75 28 7 296 67 385 85 11 2
36 7 55 11 19 4 37 8 40 8 3 1 19 4 35 8 17 4 40 10 53 12 12 3 32 7 45 10 12
2 36 8 52 12 38 9 32 8 90 18 28 5 52 9 55 9 3 1 11 5 18 9 6 5 12 6 12 4 0
-3 28 2 63 9 78 18 101 23 130 28 12 2 42 9 66 15 25 5 49 8 53 5 4 -3 8 0 8
7 0 7 2 10 6 7 3 -3 22 -2 42 3 31 8 71 15 117 23 6 1 16 5 23 9 6 5 12 6 12
4 0 -3 17 -1 38 4 20 5 47 12 60 14 12 3 34 8 50 11 15 3 36 7 47 9 11 2 20 4
20 5 0 4 70 14 164 24 67 8 107 24 119 50 27 60 -23 208 -95 280 -39 39 -104
76 -158 92 -27 7 -302 14 -308 7z"/>
<path d="M8420 4720 c0 -3 -12 -6 -27 -6 -16 -1 -46 -5 -68 -8 -22 -4 -55 -9
-73 -12 -73 -10 -135 -62 -148 -124 -4 -19 -8 -170 -10 -335 -2 -288 -5 -351
-19 -550 -10 -131 -13 -1055 -4 -1055 4 0 36 17 71 37 57 33 248 209 248 228
0 5 7 15 15 24 28 28 100 134 153 226 29 50 57 97 62 105 5 8 24 44 43 80 46
86 77 143 115 210 18 30 44 80 59 110 16 30 33 58 38 62 6 4 6 8 2 8 -4 0 -2
10 5 23 14 26 16 32 24 75 4 17 10 32 13 32 4 0 8 6 8 13 3 38 12 143 14 147
1 3 0 10 -1 15 -1 6 -3 28 -5 50 -2 22 -6 49 -9 60 -3 11 -10 37 -15 58 -10
43 -69 165 -88 185 -7 7 -13 17 -13 20 0 4 -10 19 -22 32 -33 37 -82 109 -106
155 -31 61 -80 113 -120 127 -37 12 -142 19 -142 8z"/>
<path d="M7686 4583 c-2 -3 -15 -6 -28 -7 -41 -5 -131 -38 -181 -68 -26 -15
-50 -28 -53 -28 -3 0 -11 -6 -19 -12 -7 -7 -33 -28 -57 -47 -42 -33 -118 -121
-118 -137 0 -4 -6 -15 -14 -23 -12 -14 -35 -95 -70 -248 -2 -10 -18 -74 -36
-143 -17 -69 -33 -136 -35 -150 -2 -14 -9 -40 -14 -58 -5 -18 -10 -35 -10 -37
-1 -3 -1 -6 -2 -7 -2 -9 -10 -47 -14 -68 -2 -14 -4 -25 -5 -25 -2 0 -8 -26
-24 -100 -2 -11 -9 -40 -15 -65 -7 -25 -14 -56 -17 -69 -3 -14 -13 -50 -24
-80 -10 -31 -21 -75 -25 -99 -5 -39 -3 -46 24 -71 24 -22 38 -27 68 -25 36 3
94 27 124 52 8 7 39 29 69 49 146 97 286 238 388 390 23 34 42 66 42 72 0 5 3
11 8 13 19 8 136 274 148 338 4 16 10 30 14 30 3 0 7 6 7 13 0 6 12 57 26 112
14 55 30 125 36 155 6 30 13 69 17 85 3 17 8 65 11 108 7 94 -5 121 -56 139
-34 12 -156 20 -165 11z"/>
<path d="M6893 4345 c-24 -7 -43 -11 -43 -9 0 2 -12 -1 -27 -7 -16 -6 -39 -13
-53 -16 -13 -2 -30 -9 -36 -14 -7 -5 -22 -12 -34 -14 -13 -2 -30 -11 -40 -20
-9 -8 -20 -15 -24 -15 -28 0 -173 -127 -222 -195 -16 -22 -35 -44 -41 -48 -7
-4 -13 -12 -13 -16 0 -5 -17 -38 -38 -72 -42 -70 -109 -211 -170 -359 -30 -73
-37 -101 -31 -119 5 -13 15 -21 22 -18 6 2 21 1 32 -3 11 -4 26 -3 33 2 6 6
12 8 12 5 0 -9 101 23 127 40 13 8 23 11 23 7 0 -5 4 -4 8 2 4 5 25 21 47 34
22 13 45 29 51 35 6 5 22 17 34 25 33 21 177 150 226 202 22 24 69 79 103 123
78 102 74 95 90 128 8 15 18 27 23 27 4 0 8 4 8 9 0 5 8 26 17 47 9 22 18 42
19 47 1 4 2 8 4 10 13 17 20 170 8 183 -13 12 -72 12 -115 -1z"/>
</g>
</svg>
