<svg width="315" height="336" viewBox="0 0 315 336" fill="none" xmlns="http://www.w3.org/2000/svg">
<path d="M103.747 125.064C106.768 125.222 109.504 126.289 112.293 127.011C135.322 132.991 158.294 139.207 181.382 144.947C188.505 146.717 192.898 150.628 195.322 157.733C190.203 157.108 185.294 156.526 180.388 155.901C167.074 154.205 153.763 152.479 140.45 150.799C137.873 150.475 135.469 149.635 133.236 148.416C123.136 142.893 113.828 136.285 105.692 128.119C104.895 127.316 103.913 126.576 103.747 125.064ZM123.937 151.85C129.481 152.547 134.409 153.148 139.333 153.788C156.825 156.069 174.297 158.527 191.817 160.555C197.17 161.174 199.305 164.556 201.197 168.641C202.022 170.42 200.497 170.041 199.668 170.084C195.653 170.29 191.635 170.448 187.617 170.592C177.915 170.934 168.212 171.267 158.51 171.575C155.943 171.656 153.457 171.239 151.021 170.343C142.976 167.387 129.062 158.085 123.937 151.85ZM143.636 175.61C147.322 175.432 151.009 175.24 154.698 175.075C169.376 174.418 184.053 173.762 198.73 173.127C199.699 173.087 200.715 173.08 201.641 173.32C204.046 173.936 205.302 176.03 205.431 178.046C205.534 179.685 203.189 179.306 201.879 179.592C192.989 181.536 184.059 183.288 175.201 185.366C169.926 186.604 164.911 186.1 159.926 184.287C154.154 182.187 148.551 179.741 143.404 176.394C143.486 176.132 143.561 175.871 143.636 175.61Z" fill="#D2D2D2"/>
<path d="M65.7253 127.179C61.5792 124.784 57.4925 122.282 53.2682 120.03C50.9512 118.792 51.1576 117.364 52.2332 115.503C53.4964 113.313 54.7034 114.865 55.8415 115.553C60.7006 118.493 65.5096 121.511 70.378 124.438C72.0196 125.424 73.3016 126.299 72.154 128.554C71.0972 130.629 70.7126 133.093 67.2825 132.132C63.2645 131.006 59.1465 130.222 54.7815 129.923C58.3523 132.191 61.8418 134.605 65.5283 136.677C67.8328 137.972 67.7828 139.372 66.8729 141.472C65.9567 143.581 65.1031 144.878 62.3421 144.132C56.8577 142.648 51.2733 141.537 45.7357 140.252C44.2192 139.9 42.3963 139.776 43.1655 137.368C43.7752 135.461 44.6288 134.394 47.0146 135.119C51.464 136.472 56.0072 137.508 60.7694 138.09C56.9828 135.732 53.2306 133.314 49.3909 131.04C47.5711 129.96 46.5768 128.921 47.5242 126.597C48.4466 124.332 49.8068 124.065 51.9143 124.603C56.4419 125.754 61.007 126.765 65.5565 127.832C65.6159 127.612 65.669 127.394 65.7253 127.179V127.179Z" fill="#282634"/>
<path d="M199.399 211.484C199.399 207.492 199.362 203.725 199.408 199.954C199.468 194.98 200.171 190.024 199.812 185.033C199.681 183.185 200.225 181.611 202.32 181.418C204.411 181.225 206.866 179.947 208.292 182.818C208.639 183.512 209.07 184.184 209.561 184.784C212.81 188.754 212.979 192.808 210.352 197.226C208.31 200.664 206.728 204.372 204.171 207.505C202.867 209.104 201.441 210.56 199.399 211.484V211.484Z" fill="#D2D2D2"/>
<path d="M263.23 163.526C268.314 163.648 272.007 167.552 271.878 172.667C271.753 177.61 267.591 181.667 262.801 181.521C257.742 181.365 253.549 177.1 253.702 172.265C253.859 167.272 258.08 163.402 263.23 163.526ZM52.1425 163.592C57.5581 163.657 61.1133 167.291 61.0445 172.682C60.9788 177.8 57.2517 181.35 51.9799 181.325C46.8895 181.3 42.8778 177.408 42.9216 172.536C42.9716 167.474 47.0395 163.529 52.1425 163.592ZM269.752 139.347C267.566 138.995 265.137 138.675 262.739 138.196C261.207 137.888 260.109 138.304 259.115 139.468C257.404 141.472 255.653 143.447 253.824 145.342C253.03 146.163 252.239 148.067 250.929 146.969C249.547 145.808 248.799 143.764 250.059 141.957C250.994 140.616 252.333 139.555 253.496 138.37C254.024 137.832 254.959 137.412 254.584 136.503C254.246 135.688 253.286 135.738 252.517 135.679C251.348 135.588 250.166 135.598 248.996 135.504C248.321 135.448 247.571 135.427 247.001 135.119C245.451 134.272 244.841 132.592 245.088 131.136C245.404 129.282 247.148 130.452 248.277 130.365C248.659 130.334 249.05 130.489 249.437 130.527C260.084 131.507 256.507 133.249 263.852 125.316C264.58 124.528 265.296 122.425 266.647 123.791C267.817 124.973 268.845 126.989 267.476 128.837C266.616 129.998 265.415 130.909 264.383 131.945C263.348 132.981 263.552 133.622 265.024 133.821C266.381 134.005 267.738 134.21 269.099 134.366C271.387 134.627 271.841 136.428 272.06 138.155C272.247 139.614 270.981 139.446 269.752 139.347Z" fill="#282634"/>
<path d="M197.185 185.285C196.019 192.923 193.64 199.886 186.801 204.437C185.707 205.165 184.325 206.372 183.133 205.536C182.192 204.876 183.137 203.355 183.39 202.256C184.44 197.708 185.525 193.169 186.667 188.645C187.558 185.12 193.349 181.997 196.482 183.276C197.523 183.699 196.963 184.598 197.185 185.285Z" fill="#D2D2D2"/>
<path d="M81.3843 237.35C78.5077 238.42 76.5159 239.22 74.4772 239.892C73.436 240.234 72.2009 241.189 71.2597 239.913C70.428 238.787 71.5662 237.922 72.1321 237.076C73.5235 234.995 74.99 232.963 76.0844 230.527C73.5611 232.114 71.0596 233.735 68.505 235.272C67.7233 235.741 66.6071 236.712 65.9348 235.601C65.225 234.425 66.7321 234.046 67.4638 233.567C70.4905 231.576 73.5642 229.65 76.6347 227.724C77.5196 227.17 78.4232 226.308 79.4832 227.463C80.5307 228.601 79.9554 229.622 79.2237 230.611C77.6165 232.786 75.9968 234.948 74.3365 237.179C75.7248 238.006 76.6222 237.138 77.5665 236.824C79.5176 236.174 81.425 235.39 83.3792 234.758C84.3016 234.46 85.1333 234.808 85.6399 235.682C86.1433 236.553 85.6243 237.21 85.0364 237.736C81.969 240.47 78.8797 243.183 75.7748 245.877C75.2808 246.307 74.6242 246.892 73.9957 246.145C73.4078 245.448 74.0332 244.882 74.4741 244.375C76.4377 242.122 79.305 240.756 81.3843 237.35ZM201.704 261.949C202.97 264.793 204.252 267.627 205.487 270.483C205.812 271.236 206.556 272.256 205.353 272.742C204.233 273.193 203.886 271.998 203.555 271.255C202.001 267.776 200.512 264.27 199.018 260.77C198.617 259.834 198.352 258.894 199.455 258.188C200.49 257.525 201.322 257.933 202.088 258.661C204.208 260.68 206.322 262.705 208.614 264.899C209.155 262.603 207.913 260.602 207.676 258.496C207.566 257.528 207.301 256.58 207.197 255.612C207.107 254.76 207.501 254.091 208.304 253.727C209.198 253.322 209.868 253.783 210.321 254.455C212.672 257.936 214.989 261.442 217.294 264.955C217.672 265.533 218.007 266.24 217.175 266.725C216.374 267.195 215.855 266.594 215.48 266.025C213.551 263.107 211.656 260.167 209.277 257.373C209.777 259.784 210.305 262.189 210.762 264.606C210.984 265.788 211.919 267.272 210.527 268.094C208.961 269.021 208.067 267.388 207.154 266.492C205.49 264.858 203.961 263.094 202.376 261.386C202.148 261.573 201.926 261.76 201.704 261.949V261.949ZM129.328 276.055C130.319 273.128 131.282 270.191 132.314 267.276C132.614 266.429 132.758 265.02 134.13 265.583C135.218 266.028 134.549 267.139 134.299 267.913C133.158 271.441 131.979 274.957 130.769 278.46C130.463 279.353 130.219 280.46 128.88 280.314C127.595 280.174 127.076 279.278 126.917 278.108C126.548 275.405 126.182 272.698 125.822 269.995C125.697 269.058 125.813 268.053 124.853 266.974C123.774 270.041 122.808 272.851 121.789 275.644C121.514 276.404 121.407 277.676 120.16 277.175C119.222 276.796 119.738 275.8 119.966 275.097C121.138 271.479 122.323 267.864 123.559 264.267C123.862 263.387 124.121 262.242 125.488 262.519C126.76 262.777 127.133 263.853 127.286 264.936C127.808 268.595 128.268 272.263 128.752 275.928C128.946 275.965 129.137 276.008 129.328 276.055V276.055ZM244.728 219.498C248.105 221.206 250.791 222.528 253.436 223.928C254.234 224.352 255.71 224.7 255.162 225.857C254.456 227.354 253.261 226.103 252.43 225.699C249.181 224.112 245.982 222.42 242.787 220.733C241.952 220.295 240.839 219.924 241.192 218.636C241.526 217.417 242.527 217.019 243.703 217.065C246.633 217.184 249.559 217.373 252.492 217.445C253.402 217.467 254.418 217.843 255.453 216.888C252.764 215.497 250.166 214.219 247.636 212.816C246.726 212.312 244.81 212.038 245.644 210.56C246.436 209.16 247.724 210.607 248.656 211.045C251.488 212.371 254.281 213.786 257.02 215.292C258.117 215.896 259.934 216.228 259.377 218.098C258.874 219.784 257.314 219.526 255.925 219.511C252.461 219.473 248.996 219.498 244.728 219.498V219.498Z" fill="#282634"/>
<path d="M184.131 187.93C183.912 191.791 176.145 199.736 172.068 199.96C171.098 200.013 170.736 199.74 171.114 198.834C173.372 193.424 175.42 187.815 182.258 186.511C183.134 186.346 184.334 185.715 184.131 187.93V187.93Z" fill="#D2D2D2"/>
<path d="M141.309 266.277C142.92 266.47 144.449 266.784 145.628 267.966C145.975 268.315 146.319 268.747 145.978 269.254C145.634 269.761 145.143 269.59 144.674 269.385C143.78 268.996 142.91 268.508 141.975 268.262C140.837 267.96 139.809 268.343 139.193 269.388C138.511 270.548 139.086 271.488 140.006 272.179C141.019 272.938 142.141 273.551 143.201 274.254C145.074 275.498 146.218 277.132 145.437 279.446C144.611 281.898 142.685 282.915 140.184 282.816C138.598 282.753 137.091 282.262 135.806 281.288C135.35 280.943 134.774 280.482 135.128 279.841C135.503 279.16 136.147 279.496 136.666 279.751C137.723 280.271 138.758 280.818 139.987 280.831C141.366 280.846 142.541 280.492 143.089 279.104C143.651 277.673 142.976 276.646 141.819 275.868C140.765 275.159 139.621 274.571 138.614 273.806C137.026 272.602 136.025 271.084 136.851 268.999C137.645 266.996 139.386 266.448 141.309 266.277V266.277ZM247.627 204.49C247.546 202.62 248.258 201.062 249.562 199.764C249.981 199.348 250.535 198.965 251.082 199.537C251.485 199.957 251.241 200.44 250.941 200.853C250.769 201.09 250.56 201.301 250.4 201.547C249.45 203.031 248.715 204.755 250.344 206.015C252.214 207.458 253.308 205.61 254.421 204.44C255.025 203.806 255.497 203.034 256.141 202.449C258.789 200.048 262.532 201.024 263.699 204.388C264.396 206.4 263.111 210.314 261.35 211.512C260.869 211.839 260.319 212.274 259.774 211.795C259.171 211.26 259.637 210.722 260.031 210.289C260.838 209.412 261.472 208.438 261.772 207.281C262.154 205.822 261.919 204.543 260.49 203.753C259.143 203.009 258.042 203.538 257.095 204.562C256.169 205.564 255.325 206.659 254.315 207.567C252.986 208.762 251.385 209.169 249.684 208.382C248.058 207.617 247.636 206.142 247.627 204.49V204.49ZM71.4567 220.379C67.3294 219.713 63.2739 219.592 59.5155 221.912C58.862 222.317 57.9615 222.616 57.5237 221.576C57.1673 220.74 57.8364 220.251 58.4774 220.036C62.8268 218.577 64.8342 214.741 67.4075 211.468C67.9016 210.84 68.3643 209.543 69.3493 210.233C70.403 210.974 69.515 212 68.9709 212.775C68.1892 213.895 67.3325 214.962 66.5008 216.048C65.3563 217.538 65.9661 218.129 67.6045 218.167C68.8771 218.198 70.156 218.148 71.4255 218.232C72.3573 218.294 73.7643 218.117 73.7737 219.38C73.7799 220.867 72.3135 220.155 71.4567 220.379V220.379ZM155.608 275.579C155.608 274.027 155.724 272.462 155.58 270.922C155.361 268.585 156.384 267.696 158.629 267.941C158.916 267.972 159.223 267.888 159.504 267.944C160.767 268.193 163.044 267.313 163.103 268.691C163.181 270.496 160.955 269.472 159.77 269.687C158.344 269.945 157.684 270.611 157.681 271.989C157.678 273.274 157.653 274.593 159.314 274.988C159.504 275.035 159.711 275.022 159.886 275.097C160.846 275.498 162.731 274.674 162.637 276.292C162.569 277.464 160.864 277.035 159.845 277.048C157.434 277.079 157.788 278.836 157.613 280.358C157.503 281.307 158.107 282.987 156.615 282.928C155.252 282.875 155.79 281.213 155.727 280.236C155.627 278.687 155.699 277.128 155.699 275.576C155.677 275.579 155.643 275.579 155.608 275.579V275.579ZM172.384 64.2569C172.384 64.1169 172.405 63.532 172.38 62.9471C172.121 56.6346 168.756 53.0849 162.881 52.92C156.368 52.7364 152.378 56.0653 151.759 62.3498C151.5 64.9662 151.447 67.6075 152.284 70.1742C153.632 74.2995 156.828 76.7262 161.243 76.9564C165.905 77.2022 169.435 75.18 171.264 71.2662C172.243 69.1724 172.465 66.9635 172.384 64.2569V64.2569ZM165.927 69.9751C165.245 71.7546 163.954 72.8715 161.928 72.8404C159.904 72.8093 158.691 71.6924 158.041 69.8538C156.956 66.7955 157.194 63.7124 157.919 60.6449C158.432 58.464 159.704 56.9115 162.134 56.8618C164.745 56.8089 165.98 58.464 166.496 60.7755C166.727 61.8147 166.837 62.8818 166.955 63.6315C166.771 65.9898 166.668 68.0493 165.927 69.9751V69.9751ZM66.8635 202.328C66.4226 199.463 64.9686 198.893 62.3515 199.998C60.2003 200.903 57.8989 201.451 55.6695 202.176C50.0382 204.005 49.7161 204.829 52.5552 210.078C52.6021 210.165 52.649 210.249 52.6991 210.333C54.6314 213.612 58.146 213.836 60.1909 210.663C60.9257 209.524 61.4604 209.368 62.7361 209.648C65.6972 210.302 67.4044 208.787 67.4669 205.144C67.345 204.599 67.0386 203.473 66.8635 202.328V202.328ZM56.2761 210.411C53.956 210.19 53.24 208.202 53.3338 206.419C53.4464 204.229 55.7352 204.372 57.1985 204.353C59.1747 204.325 59.0402 206.18 59.2216 207.461C59.0684 209.4 58.1616 210.591 56.2761 210.411ZM63.4365 207.496C61.5854 207.402 60.638 206.055 60.4817 204.425C60.2753 202.266 62.2733 202.344 63.5584 202.2C65.5565 201.98 65.322 203.8 65.6409 204.923C65.6096 206.491 65.0374 207.576 63.4365 207.496ZM192.308 274.335C190.85 273.059 189.981 272.129 191.16 269.976C193.02 266.582 191.038 263.794 186.617 263.757C186.12 263.825 185.138 263.891 184.187 264.099C180.726 264.855 180.51 265.232 181.467 268.623C182.342 271.715 183.215 274.811 184.131 277.891C184.397 278.787 184.625 280.156 185.854 279.829C187.198 279.468 186.313 278.196 186.26 277.312C186.185 276.046 184.706 274.534 186.254 273.591C188.018 272.518 188.993 274.406 190.153 275.34C190.381 275.523 190.553 275.784 190.8 275.931C191.957 276.615 193.12 278.759 194.365 277.318C195.362 276.155 193.233 275.147 192.308 274.335V274.335ZM186.113 271.196C183.696 271.276 183.862 269.024 183.618 267.565C183.268 265.465 185.166 265.804 186.267 265.558C188.143 265.552 189.325 266.233 189.328 268.088C189.328 270.153 187.908 271.136 186.113 271.196ZM240.72 243.892C240.163 243.706 239.594 243.513 239.016 243.444C236.714 243.168 235.273 242.393 235.37 239.599C235.454 237.185 233.641 236.062 231.408 235.822C228.603 236.006 227.027 237.969 225.223 239.602C223.888 240.809 223.994 241.839 225.283 243.006C227.603 245.103 229.795 247.349 232.177 249.368C233.234 250.264 234.322 252.666 235.767 251.219C236.914 250.068 234.538 248.992 233.753 247.872C233.269 247.181 232.324 246.658 232.956 245.622C233.581 244.599 234.572 244.683 235.573 244.91C237.102 245.252 238.631 245.61 240.163 245.933C240.982 246.108 241.87 246.08 242.074 245.115C242.264 244.21 241.348 244.104 240.72 243.892V243.892ZM230.889 244.384C230.032 244.67 226.884 241.693 227.112 240.812C227.553 239.108 228.994 238.504 230.558 238.146C232.249 238.286 233.425 239.061 233.375 240.819C233.328 242.449 232.534 243.836 230.889 244.384V244.384ZM113.121 257.407C108.866 257.441 105.12 261.943 105.129 267.011C105.139 270.972 107.865 273.747 111.692 273.694C115.704 273.635 119.816 268.455 119.697 263.608C119.619 260.282 116.536 257.379 113.121 257.407V257.407ZM113.987 270.632C112.615 271.892 110.958 271.986 109.329 271.177C107.637 270.337 107.068 268.837 107.227 267.024C107.562 263.234 110.632 259.376 113.353 259.317C115.545 259.271 117.521 261.147 117.43 263.424C117.317 266.277 116.089 268.707 113.987 270.632ZM104.629 252.053C103.738 251.297 102.75 250.656 101.837 249.925C100.517 248.867 99.6198 249.247 98.7412 250.572C96.9683 253.251 95.014 255.814 93.288 258.524C92.5407 259.694 90.255 261.072 91.9466 262.32C93.4069 263.396 93.9228 260.808 94.9046 259.905C95.5925 259.274 95.9677 258.073 97.184 258.446C98.4848 258.848 98.4785 259.996 98.3566 261.109C98.294 261.688 98.2284 262.27 98.1909 262.606C98.1627 263.044 98.1221 263.244 98.144 263.433C98.3066 264.703 97.4217 266.902 98.9382 266.992C100.714 267.098 100.23 264.802 100.361 263.499C100.53 261.819 100.727 260.462 102.844 260.216C104.751 259.992 106.058 258.851 106.53 256.934C107.033 254.881 106.127 253.328 104.629 252.053V252.053ZM101.69 258.297C100.164 258.356 98.7693 257.672 98.2159 256.113C97.8751 255.161 100.17 252.165 101.302 252.068C102.847 252.585 104.266 253.524 104.363 255.394C104.444 257.043 103.384 258.232 101.69 258.297V258.297ZM178.953 271.877C177.821 267.86 175.129 266.159 171.017 266.753C167.875 267.207 165.905 269.718 165.83 273.488C165.808 274.549 165.905 275.629 166.108 276.671C166.977 281.061 169.766 283.447 173.465 283.046C177.227 282.638 179.397 279.81 179.381 274.534C179.325 274.164 179.266 272.984 178.953 271.877V271.877ZM173.306 281.142C170.845 281.35 169.104 279.639 168.422 276.304C168.284 275.638 168.2 274.957 168.169 274.279C168.003 270.679 169.338 268.595 171.955 268.324C174.522 268.06 176.536 270.234 176.939 273.725C177.005 274.304 177.014 274.892 177.033 275.209C177.067 279.042 175.823 280.927 173.306 281.142V281.142ZM88.8699 241.008C84.6393 240.987 79.8835 245.856 79.8584 250.233C79.8397 253.683 82.635 256.499 86.1808 256.595C90.2269 256.707 95.4455 251.608 95.4737 247.517C95.4987 244.107 92.3719 241.027 88.8699 241.008V241.008ZM85.865 254.464C83.0259 254.389 81.1561 251.872 82.1316 249.222C83.1041 246.577 84.8988 244.515 87.5254 243.367C90.3489 242.132 93.2755 244.042 93.3318 247.038C93.3881 250.199 89.0168 254.548 85.865 254.464V254.464ZM220.53 245.691C216.878 245.734 214.039 248.652 214.151 252.246C214.292 256.698 218.748 261.455 222.791 261.467C226.43 261.476 229.341 258.624 229.351 255.03C229.363 250.634 224.648 245.641 220.53 245.691ZM227.131 256.698C226.415 259.084 223.741 260.341 221.499 259.162C218.77 257.724 217.069 255.335 216.334 252.404C215.718 249.94 217.666 247.691 220.18 247.654C223.613 247.598 228.106 253.447 227.131 256.698ZM241.011 224.52C237.308 224.417 234.291 227.114 234.197 230.608C234.085 234.718 238.903 239.294 243.537 239.481C247.03 239.621 249.925 236.939 250.084 233.414C250.278 229.037 245.807 224.65 241.011 224.52V224.52ZM243.105 237.238C240.216 236.516 238.031 234.702 236.595 232.145C235.401 230.014 236.489 227.531 238.794 226.663C242.174 225.388 248.33 229.784 248.199 233.38C248.111 235.947 245.676 237.879 243.105 237.238Z" fill="#282634"/>
</svg>
