<svg width="60" height="60" viewBox="0 0 60 60" fill="none" xmlns="http://www.w3.org/2000/svg">
<path d="M52.1125 0H17.311C13.2056 0 9.82558 3.13781 9.46118 7.12935H13.2472C13.5893 5.20418 15.2794 3.7355 17.3115 3.7355H52.113C54.3908 3.7355 56.2445 5.57886 56.2445 7.84435V26.5185C56.2445 28.5409 54.767 30.2204 52.8333 30.5625V34.3272C56.8455 33.9636 60 30.6028 60 26.5199V7.84402C59.9987 3.51946 56.4609 0.000331685 52.1125 0.000331685V0Z" fill="black"/>
<path d="M42.6888 9.36646H7.894C3.54089 9.36646 0 12.8892 0 17.2101V35.8877C0 40.2084 3.54105 43.7294 7.894 43.7294H8.43561V60L12.1931 56.2645L24.7974 43.7294H42.6887C47.0431 43.7294 50.5737 40.2084 50.5737 35.8877V17.2101C50.5737 12.8894 47.0431 9.36646 42.6887 9.36646H42.6888ZM46.819 35.8877C46.819 38.1543 44.9687 39.9952 42.6888 39.9952H23.2358L19.4797 43.7307L12.1917 50.98V39.9967H7.89266C5.61349 39.9967 3.75329 38.1565 3.75329 35.8892V17.2116C3.75329 14.9515 5.61283 13.1041 7.89266 13.1041H42.6875C44.9667 13.1041 46.8177 14.9515 46.8177 17.2116V35.8875L46.819 35.8877Z" fill="black"/>
</svg>
