<svg width="60" height="60" viewBox="0 0 60 60" fill="none" xmlns="http://www.w3.org/2000/svg">
<path d="M0.057373 0V46.4516H59.9999V0H0.057373ZM58.0663 1.93548V7.74193H1.991V1.93548H58.0663ZM1.991 44.5161V9.67742H58.0663V44.5161H1.991Z" fill="black"/>
<path d="M3.9248 3.87097H5.85844V5.80646H3.9248V3.87097Z" fill="black"/>
<path d="M7.79199 3.87097H9.72562V5.80646H7.79199V3.87097Z" fill="black"/>
<path d="M11.6592 3.87097H13.5928V5.80646H11.6592V3.87097Z" fill="black"/>
<path d="M3.9248 30.9678H56.1328V11.6129H3.9248V30.9678ZM5.85844 13.5484H54.1992V29.0323H5.85844V13.5484Z" fill="black"/>
<path d="M3.9248 42.5806H17.4602V32.9032H3.9248V42.5806ZM5.85844 34.8387H15.5266V40.6452H5.85844V34.8387Z" fill="black"/>
<path d="M19.3938 32.9032H29.062V34.8387H19.3938V32.9032Z" fill="black"/>
<path d="M19.3938 36.7742H29.062V38.7097H19.3938V36.7742Z" fill="black"/>
<path d="M19.3938 40.6452H29.062V42.5807H19.3938V40.6452Z" fill="black"/>
<path d="M30.9955 42.5806H44.5309V32.9032H30.9955V42.5806ZM32.9291 34.8387H42.5973V40.6452H32.9291V34.8387Z" fill="black"/>
<path d="M46.4646 32.9032H56.1328V34.8387H46.4646V32.9032Z" fill="black"/>
<path d="M46.4646 36.7742H56.1328V38.7097H46.4646V36.7742Z" fill="black"/>
<path d="M46.4646 40.6452H56.1328V42.5807H46.4646V40.6452Z" fill="black"/>
<path d="M37.2306 16.4516H30.2993L29.5259 15.4839H22.7971L15.0626 25.1613H7.79199V27.0968H52.2655V25.1613H44.9652L37.2306 16.4516ZM23.725 17.4194H28.5966L32.1739 21.8952L33.6841 20.6864L31.8462 18.3871H36.3613L42.3767 25.1613H17.5378L23.725 17.4194Z" fill="black"/>
<path d="M54.1991 48.3871H10.4416L0 54.1935L10.4416 60H54.1991C57.3982 60 60 57.3957 60 54.1935C60 50.9914 57.3982 48.3871 54.1991 48.3871ZM11.6592 55.1613H42.5973V53.2258H11.6592V50.3226H46.4646V53.2258H44.531V55.1613H46.4646V58.0645H11.6592V55.1613ZM48.3982 50.3226H50.3318V58.0645H48.3982V50.3226ZM9.72561 51V57.3871L3.98173 54.1935L9.72561 51ZM54.1991 58.0645H52.2655V50.3226H54.1991C56.3317 50.3226 58.0664 52.0589 58.0664 54.1935C58.0664 56.3282 56.3317 58.0645 54.1991 58.0645Z" fill="black"/>
</svg>
