<svg width="60" height="60" viewBox="0 0 60 60" fill="none" xmlns="http://www.w3.org/2000/svg">
<path d="M39.0179 0.000136575C35.4748 0.000136575 31.9327 1.55932 29.2361 4.68739C23.8433 10.9434 23.8433 21.1141 29.2361 27.37C33.7748 32.6353 40.714 33.4686 46.0135 29.8714L54.0356 39.1802C55.3918 40.7533 57.6271 40.7533 58.9828 39.1802C60.339 37.607 60.339 35.0246 58.9828 33.4515L50.9553 24.1449C54.0633 17.9993 53.3476 9.95513 48.8057 4.68725C46.1095 1.55918 42.561 0 39.0179 0V0.000136575ZM39.0179 2.3728C42.0258 2.3728 45.0374 3.70033 47.3392 6.37092C51.9429 11.7115 51.9429 20.3434 47.3392 25.6837C42.7356 31.0243 35.3067 31.0243 30.7037 25.6837C26.1 20.3432 26.1 11.7112 30.7037 6.37092C33.0056 3.70036 36.011 2.3728 39.0185 2.3728H39.0179ZM13.9694 22.0614C13.5104 22.0902 13.1226 22.466 13.0182 22.9838C12.955 23.2929 13.0011 23.6185 13.1457 23.888C13.2906 24.1581 13.5224 24.3503 13.7898 24.4224L16.4223 25.1393L2.65096 34.3595H2.6505C2.41316 34.5186 2.24046 34.7801 2.16981 35.087C2.09917 35.3934 2.13703 35.7196 2.27509 35.9939C2.41131 36.2699 2.63757 36.4712 2.90262 36.5539C3.16813 36.6372 3.45072 36.5945 3.68898 36.4354L17.5395 27.1591L16.7296 30.2023C16.562 30.8312 16.8654 31.4979 17.4084 31.6948C17.9519 31.8881 18.5286 31.5374 18.699 30.9102L20.2726 25.0485C20.3576 24.732 20.3252 24.3888 20.183 24.1011C20.0413 23.8134 19.8021 23.6068 19.5232 23.5304L14.2629 22.0919C14.1668 22.0658 14.0685 22.0556 13.9697 22.0615L13.9694 22.0614ZM49.7584 26.1438L57.5159 35.1468C58.0884 35.8108 58.0884 36.8298 57.5159 37.4939C56.9433 38.1579 56.0743 38.1579 55.5017 37.4939L47.7387 28.4862C48.1067 28.1392 48.4627 27.7672 48.8053 27.37C49.1447 26.9761 49.4619 26.5667 49.7588 26.1439L49.7584 26.1438ZM26.9452 30.2305C26.671 30.2294 26.4073 30.3538 26.2129 30.5775C26.018 30.8006 25.9081 31.1043 25.9068 31.4214V57.6091H22.3799V37.6773C22.3776 37.0207 21.9177 36.4885 21.3492 36.4864H16.6684C16.1004 36.4885 15.6405 37.0207 15.6382 37.6773V57.6091L12.1031 57.6086V45.4724C12.1008 44.8147 11.6395 44.2826 11.0706 44.2809H6.3921C5.82322 44.2825 5.36193 44.8147 5.35962 45.4724V57.6091L1.03848 57.6086C0.764203 57.6075 0.500538 57.7324 0.306143 57.9556C0.111288 58.1792 0.00138887 58.4829 5.82297e-06 58.8C-0.000917744 59.1187 0.108056 59.4246 0.302916 59.6498C0.498233 59.8756 0.762821 60.0016 1.0385 60H36.9776H36.9771C37.2519 59.9995 37.5151 59.8729 37.7085 59.6477C37.9025 59.4224 38.0105 59.1176 38.0096 58.8C38.0073 58.1424 37.546 57.6102 36.9771 57.6086H32.656V34.9861C32.6551 34.3285 32.1947 33.7952 31.6258 33.7926C31.3511 33.7915 31.0874 33.9164 30.8926 34.1406C30.6977 34.3642 30.5878 34.6685 30.5873 34.9861V57.6086H27.9752V31.4209C27.9729 30.7643 27.5129 30.2327 26.945 30.23L26.9452 30.2305ZM17.699 38.8784H20.3112V57.6105L17.699 57.61V38.8784ZM7.43058 46.6739H10.0326V57.6102L7.43058 57.6097V46.6739Z" fill="black"/>
</svg>
