<svg width="182" height="167" viewBox="0 0 182 167" fill="none" xmlns="http://www.w3.org/2000/svg">
<path d="M41.7289 81.5092C40.3565 81.5092 39.2432 80.4058 39.2432 79.0558C39.2432 77.6957 40.3565 76.5923 41.7289 76.5923H77.615C78.9873 76.5923 80.1007 77.6957 80.1007 79.0558C80.1007 80.4046 78.9873 81.5092 77.615 81.5092H41.7289ZM24.0345 16.2368C25.3954 16.2368 26.51 17.3402 26.51 18.6902C26.51 20.0504 25.3966 21.1437 24.0345 21.1437L16.4084 21.1424C15.0361 21.1424 13.9329 20.0491 13.9329 18.689C13.9329 17.3402 15.0361 16.2355 16.4084 16.2355L24.0345 16.2368ZM41.7289 93.7617C40.3565 93.7617 39.2432 92.6684 39.2432 91.3083C39.2432 89.9482 40.3565 88.8548 41.7289 88.8548H77.615C78.9873 88.8548 80.1007 89.9482 80.1007 91.3083C80.1007 92.6684 78.9873 93.7617 77.615 93.7617H41.7289ZM41.7289 106.009C40.3565 106.009 39.2432 104.915 39.2432 103.555C39.2432 102.195 40.3565 101.102 41.7289 101.102H62.4766C63.849 101.102 64.9522 102.195 64.9522 103.555C64.9522 104.915 63.849 106.009 62.4766 106.009H41.7289ZM101.915 65.6599C100.543 65.6599 99.4394 64.5565 99.4394 63.1964C99.4394 61.8477 100.543 60.743 101.915 60.743H155.393C156.765 60.743 157.869 61.8464 157.869 63.1964C157.869 64.5565 156.765 65.6599 155.393 65.6599H101.915ZM101.915 52.8277C100.543 52.8277 99.4394 51.7343 99.4394 50.3742C99.4394 49.0255 100.543 47.9208 101.915 47.9208H130.846C132.218 47.9208 133.332 49.0242 133.332 50.3742C133.332 51.7343 132.218 52.8277 130.846 52.8277H101.915ZM139.884 52.8277C138.512 52.8277 137.409 51.7343 137.409 50.3742C137.409 49.0255 138.512 47.9208 139.884 47.9208H155.39C156.763 47.9208 157.866 49.0242 157.866 50.3742C157.866 51.7343 156.763 52.8277 155.39 52.8277H139.884ZM101.915 40.0032C100.543 40.0032 99.4394 38.9098 99.4394 37.5497C99.4394 36.1896 100.543 35.0963 101.915 35.0963H110.705C112.077 35.0963 113.181 36.1896 113.181 37.5497C113.181 38.9098 112.077 40.0032 110.705 40.0032H101.915ZM119.743 40.0032C118.37 40.0032 117.257 38.9098 117.257 37.5497C117.257 36.1896 118.37 35.0963 119.743 35.0963H155.391C156.764 35.0963 157.867 36.1896 157.867 37.5497C157.867 38.9098 156.764 40.0032 155.391 40.0032H119.743ZM98.4973 76.3548H157.341C158.713 76.3548 159.817 77.4481 159.817 78.8082V107.358C159.817 108.718 158.713 109.821 157.341 109.821H98.4973C97.1249 109.821 96.0217 108.718 96.0217 107.358V78.8082C96.0217 77.4481 97.1249 76.3548 98.4973 76.3548ZM154.865 81.2641H100.974V104.908H154.865V81.2641ZM61.5387 29.1009C62.9111 29.1009 64.0143 30.2044 64.0143 31.5644C64.0143 32.9132 62.9111 34.0179 61.5387 34.0179H16.4065C15.0341 34.0179 13.9309 32.9145 13.9309 31.5644C13.9309 30.2043 15.0341 29.1009 16.4065 29.1009H61.5387ZM60.0102 16.2371C61.3826 16.2371 62.4858 17.3405 62.4858 18.6906C62.4858 20.0507 61.3826 21.144 60.0102 21.144H33.5841C32.2117 21.144 31.0984 20.0507 31.0984 18.6906C31.0984 17.3418 32.2118 16.2371 33.5841 16.2371H60.0102ZM63.0634 4.9171H10.6187C7.51349 4.9171 4.95535 7.44225 4.95535 10.5299V41.3089C4.95535 44.3965 7.50325 46.933 10.6187 46.933H43.3264C44.0475 46.933 44.6987 47.24 45.1532 47.7307L58.803 60.6171V49.3905C58.803 48.0304 59.9164 46.937 61.2786 46.937C63.5066 46.937 65.2497 47.0817 67.0665 45.2813C68.096 44.2609 68.7371 42.8568 68.7371 41.3131L68.7359 10.5305C68.7359 7.44293 66.1778 4.91768 63.0611 4.91768L63.0634 4.9171ZM10.6187 0H63.0666C68.9166 0 73.695 4.73318 73.695 10.5335V13.2033H167.619C175.532 13.2033 182 19.6137 182 27.4599V117.353C182 125.39 175.386 131.934 167.287 131.934H113.546C113.753 136.372 114.958 140.863 116.88 144.871C133.307 147.508 146.472 153.962 146.472 164.547C146.472 165.895 145.359 167 143.997 167L52.2471 166.999C50.8532 166.999 49.75 165.895 49.7716 164.452C49.9061 153.9 62.9378 147.508 79.3641 144.871C81.2823 140.864 82.4795 136.372 82.6979 131.935H28.963C20.8534 131.935 14.2504 125.391 14.2504 117.353V51.8425H10.6183C4.77582 51.8425 0 47.1106 0 41.3129V10.5303C0 4.73389 4.77582 0.000706499 10.6183 0.000706499L10.6187 0ZM73.6908 18.1091V22.986H170.029C171.402 22.986 172.515 24.0894 172.515 25.4495L172.516 119.681C172.516 121.042 171.403 122.145 170.031 122.145H26.2068C24.8345 122.145 23.7313 121.042 23.7313 119.681V51.8419H19.1992V117.349C19.1992 122.678 23.5853 127.025 28.9618 127.025H167.283C172.648 127.025 177.035 122.678 177.035 117.349L177.036 27.4561C177.036 22.3226 172.796 18.1089 167.616 18.1089L73.6908 18.1091ZM73.6908 27.904V41.3099C73.6908 46.8622 69.3046 51.4646 63.7644 51.8221V66.3415H63.753C63.753 68.4766 61.1543 69.6027 59.5738 68.1206L42.3312 51.8396L28.6839 51.8384V117.227H167.555V27.9035L73.6908 27.904ZM98.1227 148.345C91.9019 148.345 85.6383 148.795 79.7552 149.767C67.3026 151.822 57.2606 155.953 55.138 162.079H141.096C137.158 150.687 109.597 148.345 98.122 148.345L98.1227 148.345ZM111.176 144.11C109.669 140.225 108.762 136.094 108.606 131.931H87.6402C87.4764 136.094 86.5662 140.225 85.0707 144.11C93.584 143.2 102.655 143.2 111.176 144.11H111.176Z" fill="black"/>
</svg>
