<svg xmlns="http://www.w3.org/2000/svg" xml:space="preserve" id="Ebene_1" x="0" y="0" version="1.1" viewBox="0 0 1007.42 1080"><style>.st0{fill:#a6a6a5}.st1{fill:#e52821}</style><path d="M331.8 401.99c9.66.51 18.41 3.94 27.33 6.26 73.65 19.22 147.12 39.2 220.96 57.65 22.78 5.69 36.83 18.26 44.58 41.1-16.37-2.01-32.07-3.88-47.76-5.89-42.58-5.45-85.15-11-127.73-16.4-8.24-1.04-15.93-3.74-23.07-7.66-32.3-17.75-62.07-38.99-88.09-65.24-2.55-2.58-5.69-4.96-6.22-9.82zM396.37 488.09c17.73 2.24 33.49 4.17 49.24 6.23 55.94 7.33 111.82 15.23 167.85 21.75 17.12 1.99 23.95 12.86 30 25.99 2.64 5.72-2.24 4.5-4.89 4.64-12.84.66-25.69 1.17-38.54 1.63-31.03 1.1-62.06 2.17-93.09 3.16-8.21.26-16.16-1.08-23.95-3.96-25.73-9.5-70.23-39.4-86.62-59.44zM459.37 564.46c11.79-.57 23.58-1.19 35.38-1.72 46.94-2.11 93.88-4.22 140.82-6.26 3.1-.13 6.35-.15 9.31.62 7.69 1.98 11.71 8.71 12.12 15.19.33 5.27-7.17 4.05-11.36 4.97-28.43 6.25-56.99 11.88-85.32 18.56-16.87 3.98-32.91 2.36-48.85-3.47-18.46-6.75-36.38-14.61-52.84-25.37.26-.84.5-1.68.74-2.52z" class="st0"/><path d="M210.2 408.79c-13.26-7.7-26.33-15.74-39.84-22.98-7.41-3.98-6.75-8.57-3.31-14.55 4.04-7.04 7.9-2.05 11.54.16 15.54 9.45 30.92 19.15 46.49 28.56 5.25 3.17 9.35 5.98 5.68 13.23-3.38 6.67-4.61 14.59-15.58 11.5-12.85-3.62-26.02-6.14-39.98-7.1 11.42 7.29 22.58 15.05 34.37 21.71 7.37 4.16 7.21 8.66 4.3 15.41-2.93 6.78-5.66 10.95-14.49 8.55-17.54-4.77-35.4-8.34-53.11-12.47-4.85-1.13-10.68-1.53-8.22-9.27 1.95-6.13 4.68-9.56 12.31-7.23 14.23 4.35 28.76 7.68 43.99 9.55-12.11-7.58-24.11-15.35-36.39-22.66-5.82-3.47-9-6.81-5.97-14.28 2.95-7.28 7.3-8.14 14.04-6.41 14.48 3.7 29.08 6.95 43.63 10.38.19-.71.36-1.41.54-2.1z" class="st1"/><path d="M637.71 679.77c0-12.83-.12-24.94.03-37.06.19-15.99 2.44-31.92 1.29-47.96-.42-5.94 1.32-11 8.02-11.62 6.69-.62 14.54-4.73 19.1 4.5 1.11 2.23 2.49 4.39 4.06 6.32 10.39 12.76 10.93 25.79 2.53 39.99-6.53 11.05-11.59 22.97-19.77 33.04-4.17 5.14-8.73 9.82-15.26 12.79z" class="st0"/><path d="M841.85 525.62c16.26.39 28.07 12.94 27.66 29.38-.4 15.89-13.71 28.93-29.03 28.46-16.18-.5-29.59-14.21-29.1-29.75.5-16.05 14-28.49 30.47-28.09zM166.76 525.83c17.32.21 28.69 11.89 28.47 29.22-.21 16.45-12.13 27.86-28.99 27.78-16.28-.08-29.11-12.59-28.97-28.25.16-16.27 13.17-28.95 29.49-28.75zM862.71 447.9c-6.99-1.13-14.76-2.16-22.43-3.7-4.9-.99-8.41.35-11.59 4.09-5.47 6.44-11.07 12.79-16.92 18.88-2.54 2.64-5.07 8.76-9.26 5.23-4.42-3.73-6.81-10.3-2.78-16.11 2.99-4.31 7.27-7.72 10.99-11.53 1.69-1.73 4.68-3.08 3.48-6-1.08-2.62-4.15-2.46-6.61-2.65-3.74-.29-7.52-.26-11.26-.56-2.16-.18-4.56-.25-6.38-1.24-4.96-2.72-6.91-8.12-6.12-12.8 1.01-5.96 6.59-2.2 10.2-2.48 1.22-.1 2.47.4 3.71.52 34.05 3.15 22.61 8.75 46.1-16.75 2.33-2.53 4.62-9.29 8.94-4.9 3.74 3.8 7.03 10.28 2.65 16.22-2.75 3.73-6.59 6.66-9.89 9.99-3.31 3.33-2.66 5.39 2.05 6.03 4.34.59 8.68 1.25 13.03 1.75 7.32.84 8.77 6.63 9.47 12.18.6 4.69-3.45 4.15-7.38 3.83z" class="st1"/><path d="M630.63 595.56c-3.73 24.55-11.34 46.93-33.21 61.56-3.5 2.34-7.92 6.22-11.73 3.53-3.01-2.12.01-7.01.82-10.54 3.36-14.62 6.83-29.21 10.48-43.75 2.85-11.33 21.37-21.37 31.39-17.26 3.33 1.36 1.54 4.25 2.25 6.46z" class="st0"/><path d="M260.28 762.91c-9.2 3.44-15.57 6.01-22.09 8.17-3.33 1.1-7.28 4.17-10.29.07-2.66-3.62.98-6.4 2.79-9.12 4.45-6.69 9.14-13.22 12.64-21.05-8.07 5.1-16.07 10.31-24.24 15.25-2.5 1.51-6.07 4.63-8.22 1.06-2.27-3.78 2.55-5 4.89-6.54 9.68-6.4 19.51-12.59 29.33-18.78 2.83-1.78 5.72-4.55 9.11-.84 3.35 3.66 1.51 6.94-.83 10.12-5.14 6.99-10.32 13.94-15.63 21.11 4.44 2.66 7.31-.13 10.33-1.14 6.24-2.09 12.34-4.61 18.59-6.64 2.95-.96 5.61.16 7.23 2.97 1.61 2.8-.05 4.91-1.93 6.6-9.81 8.79-19.69 17.51-29.62 26.17-1.58 1.38-3.68 3.26-5.69.86-1.88-2.24.12-4.06 1.53-5.69 6.28-7.24 15.45-11.63 22.1-22.58zM645.08 841.98c4.05 9.14 8.15 18.25 12.1 27.43 1.04 2.42 3.42 5.7-.43 7.26-3.58 1.45-4.69-2.39-5.75-4.78-4.97-11.18-9.73-22.45-14.51-33.7-1.28-3.01-2.13-6.03 1.4-8.3 3.31-2.13 5.97-.82 8.42 1.52 6.78 6.49 13.54 13 20.87 20.05 1.73-7.38-2.24-13.81-3-20.58-.35-3.11-1.2-6.16-1.53-9.27-.29-2.74.97-4.89 3.54-6.06 2.86-1.3 5 .18 6.45 2.34 7.52 11.19 14.93 22.46 22.3 33.75 1.21 1.86 2.28 4.13-.38 5.69-2.56 1.51-4.22-.42-5.42-2.25-6.17-9.38-12.23-18.83-19.84-27.81 1.6 7.75 3.29 15.48 4.75 23.25.71 3.8 3.7 8.57-.75 11.21-5.01 2.98-7.87-2.27-10.79-5.15-5.32-5.25-10.21-10.92-15.28-16.41-.73.6-1.44 1.2-2.15 1.81zM413.61 887.32c3.17-9.41 6.25-18.85 9.55-28.22.96-2.72 1.42-7.25 5.81-5.44 3.48 1.43 1.34 5 .54 7.49-3.65 11.34-7.42 22.64-11.29 33.9-.98 2.87-1.76 6.43-6.04 5.96-4.11-.45-5.77-3.33-6.28-7.09-1.18-8.69-2.35-17.39-3.5-26.08-.4-3.01-.03-6.24-3.1-9.71-3.45 9.86-6.54 18.89-9.8 27.87-.88 2.44-1.22 6.53-5.21 4.92-3-1.22-1.35-4.42-.62-6.68 3.75-11.63 7.54-23.25 11.49-34.81.97-2.83 1.8-6.51 6.17-5.62 4.07.83 5.26 4.29 5.75 7.77 1.67 11.76 3.14 23.55 4.69 35.33.62.12 1.23.26 1.84.41zM782.68 705.53c10.8 5.49 19.39 9.74 27.85 14.24 2.55 1.36 7.27 2.48 5.52 6.2-2.26 4.81-6.08.79-8.74-.51-10.39-5.1-20.62-10.54-30.84-15.96-2.67-1.41-6.23-2.6-5.1-6.74 1.07-3.92 4.27-5.2 8.03-5.05 9.37.38 18.73.99 28.11 1.22 2.91.07 6.16 1.28 9.47-1.79-8.6-4.47-16.91-8.58-25-13.09-2.91-1.62-9.04-2.5-6.37-7.25 2.53-4.5 6.65.15 9.63 1.56 9.06 4.26 17.99 8.81 26.75 13.65 3.51 1.94 9.32 3.01 7.54 9.02-1.61 5.42-6.6 4.59-11.04 4.54-11.08-.12-22.16-.04-35.81-.04z" class="st1"/><path d="M588.88 604.06c-.7 12.41-25.54 37.95-38.58 38.67-3.1.17-4.26-.71-3.05-3.62 7.22-17.39 13.77-35.42 35.64-39.61 2.8-.53 6.64-2.56 5.99 4.56z" class="st0"/><path d="M451.93 855.89c5.15.62 10.04 1.63 13.81 5.43 1.11 1.12 2.21 2.51 1.12 4.14-1.1 1.63-2.67 1.08-4.17.42-2.86-1.25-5.64-2.82-8.63-3.61-3.64-.97-6.93.26-8.9 3.62-2.18 3.73-.34 6.75 2.6 8.97 3.24 2.44 6.83 4.41 10.22 6.67 5.99 4 9.65 9.25 7.15 16.69-2.64 7.88-8.8 11.15-16.8 10.83-5.07-.2-9.89-1.78-14-4.91-1.46-1.11-3.3-2.59-2.17-4.65 1.2-2.19 3.26-1.11 4.92-.29 3.38 1.67 6.69 3.43 10.62 3.47 4.41.05 8.17-1.09 9.92-5.55 1.8-4.6-.36-7.9-4.06-10.4-3.37-2.28-7.03-4.17-10.25-6.63-5.08-3.87-8.28-8.75-5.64-15.45 2.54-6.44 8.11-8.2 14.26-8.75zM791.95 657.29c-.26-6.01 2.02-11.02 6.19-15.19 1.34-1.34 3.11-2.57 4.86-.73 1.29 1.35.51 2.9-.45 4.23-.55.76-1.22 1.44-1.73 2.23-3.04 4.77-5.39 10.31-.18 14.36 5.98 4.64 9.48-1.3 13.04-5.06 1.93-2.04 3.44-4.52 5.5-6.4 8.47-7.72 20.44-4.58 24.17 6.23 2.23 6.47-1.88 19.05-7.51 22.9-1.54 1.05-3.3 2.45-5.04.91-1.93-1.72-.44-3.45.82-4.84 2.58-2.82 4.61-5.95 5.57-9.67 1.22-4.69.47-8.8-4.1-11.34-4.31-2.39-7.83-.69-10.86 2.6-2.96 3.22-5.66 6.74-8.89 9.66-4.25 3.84-9.37 5.15-14.81 2.62-5.2-2.46-6.55-7.2-6.58-12.51zM228.53 708.36c-13.2-2.14-26.17-2.53-38.19 4.93-2.09 1.3-4.97 2.26-6.37-1.08-1.14-2.69 1-4.26 3.05-4.95 13.91-4.69 20.33-17.02 28.56-27.54 1.58-2.02 3.06-6.19 6.21-3.97 3.37 2.38.53 5.68-1.21 8.17-2.5 3.6-5.24 7.03-7.9 10.52-3.66 4.79-1.71 6.69 3.53 6.81 4.07.1 8.16-.06 12.22.21 2.98.2 7.48-.37 7.51 3.69.02 4.78-4.67 2.49-7.41 3.21zM497.66 885.79c0-4.99.37-10.02-.09-14.97-.7-7.51 2.57-10.37 9.75-9.58.92.1 1.9-.17 2.8.01 4.04.8 11.32-2.03 11.51 2.4.25 5.8-6.87 2.51-10.66 3.2-4.56.83-6.67 2.97-6.68 7.4-.01 4.13-.09 8.37 5.22 9.64.61.15 1.27.11 1.83.35 3.07 1.29 9.1-1.36 8.8 3.84-.22 3.77-5.67 2.39-8.93 2.43-7.71.1-6.58 5.75-7.14 10.64-.35 3.05 1.58 8.45-3.19 8.26-4.36-.17-2.64-5.51-2.84-8.65-.32-4.98-.09-9.99-.09-14.98-.07.01-.18.01-.29.01zM551.31 206.54c0-.45.07-2.33-.01-4.21-.83-20.29-11.59-31.7-30.38-32.23-20.83-.59-33.59 10.11-35.57 30.31-.83 8.41-1 16.9 1.68 25.15 4.31 13.26 14.53 21.06 28.65 21.8 14.91.79 26.2-5.71 32.05-18.29 3.13-6.73 3.84-13.83 3.58-22.53zm-20.65 18.38c-2.18 5.72-6.31 9.31-12.79 9.21-6.47-.1-10.35-3.69-12.43-9.6-3.47-9.83-2.71-19.74-.39-29.6 1.64-7.01 5.71-12 13.48-12.16 8.35-.17 12.3 5.15 13.95 12.58.74 3.34 1.09 6.77 1.47 9.18-.59 7.58-.92 14.2-3.29 20.39zM213.84 650.34c-1.41-9.21-6.06-11.04-14.43-7.49-6.88 2.91-14.24 4.67-21.37 7-18.01 5.88-19.04 8.53-9.96 25.4.15.28.3.55.46.82 6.18 10.54 17.42 11.26 23.96 1.06 2.35-3.66 4.06-4.16 8.14-3.26 9.47 2.1 14.93-2.77 15.13-14.48-.39-1.75-1.37-5.37-1.93-9.05zm-33.86 25.98c-7.42-.71-9.71-7.1-9.41-12.83.36-7.04 7.68-6.58 12.36-6.64 6.32-.09 5.89 5.87 6.47 9.99-.49 6.23-3.39 10.06-9.42 9.48zm22.9-9.37c-5.92-.3-8.95-4.63-9.45-9.87-.66-6.94 5.73-6.69 9.84-7.15 6.39-.71 5.64 5.14 6.66 8.75-.1 5.04-1.93 8.53-7.05 8.27zM615.03 881.79c-4.66-4.1-7.44-7.09-3.67-14.01 5.95-10.91-.39-19.87-14.53-19.99-1.59.22-4.73.43-7.77 1.1-11.07 2.43-11.76 3.64-8.7 14.54 2.8 9.94 5.59 19.89 8.52 29.79.85 2.88 1.58 7.28 5.51 6.23 4.3-1.16 1.47-5.25 1.3-8.09-.24-4.07-4.97-8.93-.02-11.96 5.64-3.45 8.76 2.62 12.47 5.62.73.59 1.28 1.43 2.07 1.9 3.7 2.2 7.42 9.09 11.4 4.46 3.19-3.74-3.62-6.98-6.58-9.59zm-19.81-10.09c-7.73.26-7.2-6.98-7.98-11.67-1.12-6.75 4.95-5.66 8.47-6.45 6-.02 9.78 2.17 9.79 8.13 0 6.64-4.54 9.8-10.28 9.99zM769.86 783.94c-1.78-.6-3.6-1.22-5.45-1.44-7.36-.89-11.97-3.38-11.66-12.36.27-7.76-5.53-11.37-12.67-12.14-8.97.59-14.01 6.9-19.78 12.15-4.27 3.88-3.93 7.19.19 10.94 7.42 6.74 14.43 13.96 22.05 20.45 3.38 2.88 6.86 10.6 11.48 5.95 3.67-3.7-3.93-7.16-6.44-10.76-1.55-2.22-4.57-3.9-2.55-7.23 2-3.29 5.17-3.02 8.37-2.29 4.89 1.1 9.78 2.25 14.68 3.29 2.62.56 5.46.47 6.11-2.63.61-2.91-2.32-3.25-4.33-3.93zm-31.44 1.58c-2.74.92-12.81-8.65-12.08-11.48 1.41-5.48 6.02-7.42 11.02-8.57 5.41.45 9.17 2.94 9.01 8.59-.15 5.24-2.69 9.7-7.95 11.46zM361.78 827.38c-13.61.11-25.59 14.58-25.56 30.87.03 12.73 8.75 21.65 20.99 21.48 12.83-.19 25.98-16.84 25.6-32.42-.25-10.69-10.11-20.02-21.03-19.93zm2.77 42.51c-4.39 4.05-9.69 4.35-14.9 1.75-5.41-2.7-7.23-7.52-6.72-13.35 1.07-12.18 10.89-24.58 19.59-24.77 7.01-.15 13.33 5.88 13.04 13.2-.36 9.17-4.29 16.98-11.01 23.17zM334.62 810.17c-2.85-2.43-6.01-4.49-8.93-6.84-4.22-3.4-7.09-2.18-9.9 2.08-5.67 8.61-11.92 16.85-17.44 25.56-2.39 3.76-9.7 8.19-4.29 12.2 4.67 3.46 6.32-4.86 9.46-7.76 2.2-2.03 3.4-5.89 7.29-4.69 4.16 1.29 4.14 4.98 3.75 8.56-.2 1.86-.41 3.73-.53 4.81-.09 1.41-.22 2.05-.15 2.66.52 4.08-2.31 11.15 2.54 11.44 5.68.34 4.13-7.04 4.55-11.23.54-5.4 1.17-9.76 7.94-10.55 6.1-.72 10.28-4.39 11.79-10.55 1.61-6.6-1.29-11.59-6.08-15.69zm-9.4 20.07c-4.88.19-9.34-2.01-11.11-7.02-1.09-3.06 6.25-12.69 9.87-13 4.94 1.66 9.48 4.68 9.79 10.69.26 5.3-3.13 9.12-8.55 9.33zM572.32 873.89c-3.62-12.91-12.23-18.38-25.38-16.47-10.05 1.46-16.35 9.53-16.59 21.65-.07 3.41.24 6.88.89 10.23 2.78 14.11 11.7 21.78 23.53 20.49 12.03-1.31 18.97-10.4 18.92-27.36-.18-1.19-.37-4.98-1.37-8.54zm-18.06 29.78c-7.87.67-13.44-4.83-15.62-15.55-.44-2.14-.71-4.33-.81-6.51-.53-11.57 3.74-18.27 12.11-19.14 8.21-.85 14.65 6.14 15.94 17.36.21 1.86.24 3.75.3 4.77.11 12.32-3.87 18.38-11.92 19.07zM284.22 774.67c-13.53-.07-28.74 15.58-28.82 29.65-.06 11.09 8.88 20.14 20.22 20.45 12.94.36 29.63-16.03 29.72-29.18.08-10.96-9.92-20.86-21.12-20.92zm-9.61 43.25c-9.08-.24-15.06-8.33-11.94-16.85 3.11-8.5 8.85-15.13 17.25-18.82 9.03-3.97 18.39 2.17 18.57 11.8.18 10.16-13.8 24.14-23.88 23.87zM705.29 789.72c-11.68.14-20.76 9.52-20.4 21.07.45 14.31 14.7 29.6 27.63 29.64 11.64.03 20.95-9.14 20.98-20.69.04-14.13-15.04-30.18-28.21-30.02zm21.11 35.38c-2.29 7.67-10.84 11.71-18.01 7.92-8.73-4.62-14.17-12.3-16.52-21.72-1.97-7.92 4.26-15.15 12.3-15.27 10.98-.18 25.35 18.62 22.23 29.07zM770.79 721.67c-11.84-.33-21.49 8.34-21.79 19.57-.36 13.21 15.05 27.92 29.87 28.52 11.17.45 20.43-8.17 20.94-19.5.62-14.07-13.68-28.17-29.02-28.59zm6.7 40.88c-9.24-2.32-16.23-8.15-20.82-16.37-3.82-6.85-.34-14.83 7.03-17.62 10.81-4.1 30.5 10.03 30.08 21.59-.28 8.25-8.07 14.46-16.29 12.4z" class="st1"/></svg>